<?xml version="1.0" standalone="no"?>
<!DOCTYPE svg PUBLIC "-//W3C//DTD SVG 20010904//EN"
 "http://www.w3.org/TR/2001/REC-SVG-20010904/DTD/svg10.dtd">
<svg version="1.0" xmlns="http://www.w3.org/2000/svg"
 width="300.000000pt" height="343.000000pt" viewBox="0 0 300.000000 343.000000"
 preserveAspectRatio="xMidYMid meet">
<metadata>
Created by potrace 1.10, written by Peter Selinger 2001-2011
</metadata>
<g transform="translate(0.000000,343.000000) scale(0.050000,-0.050000)"
fill="#000000" stroke="none">
<path d="M187 6805 c-8 -30 -2 -203 12 -385 14 -181 27 -360 29 -397 2 -43 20
-81 48 -104 26 -21 36 -41 24 -49 -11 -7 -20 -1 -20 12 0 40 -21 7 -31 -50 -6
-28 -1 -52 11 -52 11 0 20 13 20 29 0 16 18 41 40 57 22 15 35 34 30 41 -6 7
-4 9 3 3 18 -13 67 29 67 57 0 13 -10 10 -21 -7 -17 -25 -20 -23 -14 10 4 22
20 37 35 34 21 -5 22 0 4 22 -13 15 -17 34 -9 43 8 8 15 25 15 38 0 13 14 23
30 23 19 0 30 20 29 54 0 29 6 49 13 45 7 -5 13 13 13 39 0 52 -97 116 -111
74 -4 -12 -22 -22 -41 -21 -30 0 -30 2 2 21 23 13 35 44 35 90 0 42 -8 65 -20
58 -11 -7 -20 -1 -20 12 0 14 -6 19 -13 12 -7 -7 -1 -27 13 -44 15 -18 17 -30
4 -30 -12 0 -22 -16 -22 -35 -1 -73 -13 -126 -27 -125 -8 0 -22 0 -31 0 -8 0
-9 70 -1 155 8 85 9 198 3 250 -6 52 -6 95 1 95 7 0 32 -43 55 -95 30 -64 48
-85 56 -65 21 53 71 42 100 -22 16 -36 20 -68 9 -75 -25 -18 -34 -143 -10
-143 11 0 24 20 29 45 5 25 11 -283 14 -685 3 -401 8 -950 12 -1219 3 -269 -3
-503 -13 -520 -20 -35 -20 -40 -22 544 -1 325 -6 395 -29 395 -23 0 -28 -81
-28 -478 0 -494 5 -542 52 -542 24 0 27 -216 23 -1434 l-5 -1433 -113 -58
c-66 -34 -133 -86 -160 -126 -26 -38 -63 -69 -83 -69 -58 0 -174 -56 -174 -84
1 -21 4 -20 18 1 12 19 21 21 31 5 7 -12 -1 -28 -18 -34 -26 -11 -31 -62 -31
-349 l0 -338 3000 -1 3000 -1 0 630 0 630 -45 10 c-25 5 -92 12 -150 17 -58 5
-109 12 -113 16 -18 19 68 2224 159 4085 27 559 49 1039 49 1067 l0 51 -365
-12 c-201 -7 -1319 -18 -2485 -25 l-2120 -13 50 56 c32 35 39 51 18 44 -18 -6
-31 0 -31 15 0 14 12 22 26 16 15 -6 27 0 27 13 0 13 11 17 23 9 16 -10 20 -4
11 19 -11 30 -7 31 31 10 42 -22 43 -21 15 13 -28 34 -27 35 15 13 46 -25 45
29 -1 60 -11 7 -12 24 -3 39 12 19 24 11 44 -33 l27 -59 -12 58 c-10 48 -7 55
14 37 37 -31 80 -3 55 36 -14 22 -18 22 -19 3 0 -21 -7 -20 -31 4 -16 17 -45
25 -63 18 -22 -9 -28 -5 -18 11 9 14 0 23 -25 23 -22 0 -44 -16 -49 -35 -9
-33 -9 -33 -12 0 -2 32 -36 35 -412 35 l-409 0 -14 -55z m4076 -1113 c15 -7 1
-7 -31 -1 -46 9 -55 5 -45 -20 17 -45 2 -38 -34 17 -30 46 -29 47 13 37 43
-11 43 -10 -6 48 -44 52 -42 51 13 -5 35 -35 75 -69 90 -76z m-1720 -586 c15
-19 17 -28 3 -20 -13 9 -37 -4 -55 -30 -17 -25 -31 -33 -31 -19 0 14 -7 21
-17 15 -9 -6 -16 4 -16 20 0 20 13 28 36 21 23 -6 37 1 37 19 0 37 9 35 43 -6z
m306 -301 c-8 -83 -89 -220 -89 -149 0 13 10 24 21 24 12 0 20 20 18 45 -6 79
0 98 26 82 20 -12 20 -8 0 16 -18 23 -19 35 -1 53 34 34 34 34 25 -71z m-638
-987 c21 -67 -92 -107 -136 -48 -8 11 -15 3 -15 -17 0 -26 -11 -35 -36 -28
-19 5 -47 -3 -60 -18 -14 -15 -43 -27 -65 -27 -50 0 -50 -44 0 -89 25 -23 58
-32 92 -26 29 6 90 1 136 -9 56 -13 131 -12 230 4 188 30 229 9 57 -29 -32 -7
-53 -23 -49 -37 14 -41 72 -39 135 6 41 29 74 38 105 29 25 -8 38 -7 30 2 -8
9 -2 30 14 47 28 31 31 40 31 83 0 12 9 16 20 9 11 -7 21 -1 22 14 1 16 5 17
10 4 5 -12 29 -20 54 -18 26 3 30 1 8 -4 -31 -8 -34 -22 -23 -98 10 -66 5
-101 -21 -140 -19 -29 -24 -47 -12 -39 62 38 -7 -155 -92 -258 -121 -146 -153
-160 -405 -172 l-231 -12 206 -3 c290 -5 479 112 547 338 13 43 29 78 36 78 6
0 9 62 5 137 l-7 138 76 15 77 15 -65 31 c-36 17 -65 38 -65 45 0 22 158 19
171 -3 6 -10 20 -13 30 -7 11 6 19 -7 19 -29 0 -22 8 -45 18 -51 9 -6 15 -53
13 -106 -11 -245 310 -634 494 -599 38 7 37 9 -11 11 -181 9 -437 317 -342
412 25 25 27 38 8 61 -13 16 -17 47 -9 72 11 35 7 42 -19 32 -26 -10 -32 0
-30 52 2 35 7 49 11 31 6 -21 38 -39 83 -46 95 -16 271 -124 252 -155 -8 -13
6 -9 31 9 25 18 58 27 73 21 35 -13 37 22 3 50 -14 11 -64 31 -112 43 -48 13
-83 27 -79 32 5 5 39 -1 77 -11 38 -11 136 -20 219 -20 83 0 180 -9 216 -19
76 -22 145 -7 101 21 -20 13 -21 17 -2 18 14 0 25 14 25 30 0 38 42 38 131 1
145 -61 12 -455 -199 -590 -34 -22 -51 -40 -37 -41 109 -1 302 301 319 498 10
124 17 142 51 142 38 0 39 -11 30 -235 -12 -292 -32 -348 -147 -415 -48 -28
-88 -61 -88 -73 0 -11 -11 -17 -24 -12 -25 8 -116 -70 -116 -100 0 -9 -18 -32
-40 -50 -43 -37 -53 -75 -20 -75 11 0 19 -7 18 -15 -14 -88 4 -129 53 -120 48
9 49 8 17 -27 -19 -21 -27 -51 -20 -70 18 -46 70 20 71 88 1 26 10 41 21 34
11 -7 20 1 20 17 0 16 12 33 27 39 22 8 19 -13 -10 -89 -21 -55 -31 -110 -24
-123 8 -13 -1 -11 -20 4 -30 25 -34 25 -29 0 3 -15 15 -34 25 -42 24 -17 -116
-147 -211 -197 -84 -43 -138 -117 -138 -189 0 -28 -13 -56 -29 -62 -16 -6 -24
-22 -19 -35 26 -68 -269 -273 -392 -273 -34 0 -102 -10 -150 -22 -64 -16 -115
-16 -192 1 -58 12 -110 15 -116 7 -53 -72 -321 32 -488 188 -46 44 -95 83
-108 88 -22 8 -135 101 -289 238 -116 103 -242 448 -296 810 -69 460 -69 457
-30 582 l37 117 25 -157 c26 -169 108 -319 231 -423 99 -82 101 -55 3 36 -130
119 -207 261 -207 381 0 53 7 92 16 86 9 -5 28 21 42 59 13 38 43 79 65 91 22
11 36 33 30 48 -14 35 44 85 112 97 30 6 64 16 76 23 11 8 36 1 54 -13 19 -16
27 -17 19 -4 -14 23 12 42 60 45 13 1 29 -17 37 -40z m2002 -192 c-6 -6 -36
-5 -66 3 -43 11 -49 18 -26 32 16 10 20 19 9 19 -11 0 -7 9 9 19 30 19 98 -49
74 -73z m-2026 10 c15 -57 8 -62 -37 -29 -20 15 -30 37 -22 50 22 36 46 27 59
-21z m-774 -376 c6 0 6 34 0 75 -6 41 -6 63 0 48 10 -23 15 -23 29 0 13 19 18
13 19 -23 4 -117 23 -208 50 -247 36 -51 38 -100 4 -83 -14 7 -8 -1 14 -18 21
-18 31 -38 23 -47 -20 -20 -92 69 -92 113 0 19 -23 65 -50 102 -46 62 -91 178
-89 230 0 11 18 -18 40 -65 22 -47 45 -85 52 -85z m934 -1601 c73 -77 141
-139 150 -139 9 0 33 -36 53 -81 22 -48 47 -77 62 -71 15 6 22 -1 17 -14 -5
-13 20 -36 56 -50 36 -15 81 -35 100 -45 19 -11 56 -19 81 -19 26 0 54 -7 62
-15 9 -8 54 -16 102 -17 48 -2 111 -9 140 -16 38 -10 49 -7 39 9 -10 16 -1 19
27 10 41 -13 205 72 221 114 5 12 13 12 21 -1 8 -13 30 -11 62 9 l50 29 -50
-10 c-47 -10 -46 -9 5 13 30 12 55 31 55 40 0 10 9 12 21 4 14 -8 12 -23 -5
-46 -23 -29 -22 -30 8 -6 53 41 85 18 85 -61 1 -48 -7 -68 -24 -61 -14 5 -32
-8 -40 -28 -15 -38 -87 -151 -188 -300 -31 -46 -57 -93 -57 -105 0 -12 -76
-105 -170 -207 -93 -102 -169 -196 -170 -210 0 -35 -30 -31 -63 8 -15 19 -72
69 -127 113 -93 74 -191 182 -131 145 14 -9 10 7 -9 37 -19 28 -30 70 -24 92
7 29 -6 49 -48 74 -32 19 -58 42 -58 51 0 10 -31 30 -70 46 -38 16 -70 39 -70
51 0 12 -11 17 -25 13 -14 -5 -56 8 -95 28 -38 20 -80 37 -94 37 -35 0 -163
116 -229 208 -70 96 -76 239 -17 362 21 44 39 123 39 176 l1 96 87 -62 c48
-34 147 -125 220 -201z"/>
<path d="M3236 2850 c-11 -12 -195 -65 -282 -82 -35 -7 -75 1 -105 21 -68 44
-163 40 -194 -9 -13 -22 -38 -40 -55 -41 -23 0 -20 -8 10 -31 30 -24 71 -29
164 -22 86 6 136 1 160 -18 21 -16 61 -22 96 -16 33 6 86 1 117 -11 117 -44
265 42 298 175 10 39 7 42 -17 22 -22 -18 -41 -18 -80 -1 -54 25 -95 29 -112
13z"/>
<path d="M3050 2288 c-37 -19 -65 -22 -90 -8 -22 12 -39 12 -43 1 -4 -11 -45
-11 -104 0 -54 10 -129 11 -171 2 -40 -9 -91 -10 -113 -3 -21 8 -61 6 -89 -5
-94 -38 184 -80 487 -74 101 2 251 2 333 -1 83 -2 190 -6 240 -7 93 -3 133 42
82 93 -34 34 -468 36 -532 2z"/>
<path d="M3230 2080 c-44 -9 -187 -23 -318 -31 -217 -13 -234 -17 -187 -42
200 -104 632 -51 635 78 0 17 -19 16 -130 -5z"/>
</g>
</svg>
