<?xml version="1.0" standalone="no"?>
<!DOCTYPE svg PUBLIC "-//W3C//DTD SVG 20010904//EN"
 "http://www.w3.org/TR/2001/REC-SVG-20010904/DTD/svg10.dtd">
<svg version="1.0" xmlns="http://www.w3.org/2000/svg"
 width="300.000000pt" height="300.000000pt" viewBox="0 0 300.000000 300.000000"
 preserveAspectRatio="xMidYMid meet">
<metadata>
Created by potrace 1.10, written by Peter Selinger 2001-2011
</metadata>
<g transform="translate(0.000000,300.000000) scale(0.100000,-0.100000)"
fill="#000000" stroke="none">
<path d="M2994 2750 c0 -140 2 -198 3 -127 2 70 2 184 0 255 -1 70 -3 12 -3
-128z"/>
<path d="M1140 2896 c-69 -26 -107 -45 -118 -59 -7 -8 -32 -15 -58 -15 -25 -1
-53 -7 -60 -13 -18 -14 -94 -21 -94 -8 0 5 11 9 24 9 22 0 96 26 96 34 0 2
-13 3 -29 2 -16 -1 -27 -4 -24 -8 2 -5 -9 -8 -26 -8 -17 0 -40 -4 -53 -9 -13
-5 -34 -12 -48 -15 -14 -3 -29 -15 -35 -28 -5 -13 -19 -24 -30 -26 -17 -3 -18
-1 -5 8 13 10 13 11 0 7 -8 -2 -14 -11 -12 -19 1 -9 -7 -18 -20 -21 -13 -2
-32 -8 -43 -13 -18 -7 -18 -6 -6 9 7 9 11 17 7 17 -13 0 -106 -103 -106 -116
0 -23 38 -16 51 9 11 20 11 21 -4 8 -10 -8 -17 -9 -17 -3 0 12 48 52 62 52 5
0 6 -5 2 -12 -5 -8 -2 -9 9 -5 10 3 17 2 17 -4 0 -5 -10 -14 -22 -19 -13 -5
-19 -9 -14 -9 11 -1 -34 -51 -46 -51 -17 0 -66 -53 -61 -66 3 -9 0 -12 -8 -9
-8 3 -28 -13 -47 -35 -18 -22 -28 -40 -23 -40 6 0 11 -5 11 -11 0 -5 -5 -7
-10 -4 -6 4 -9 3 -8 -2 5 -16 -23 -53 -35 -47 -9 5 -9 4 0 -6 9 -10 9 -18 1
-34 -22 -40 -20 -84 3 -96 19 -11 20 -10 9 11 -8 13 -8 24 -2 28 5 3 12 17 16
31 24 83 60 171 65 156 5 -12 22 4 66 61 70 92 143 166 210 214 41 30 55 34
109 34 48 0 64 4 77 19 11 14 18 16 23 8 4 -7 1 -12 -6 -12 -9 0 -9 -3 2 -10
20 -13 33 -13 25 0 -3 5 0 7 9 4 18 -7 59 14 51 27 -4 5 1 9 10 9 9 0 13 -4
10 -10 -12 -20 6 -9 35 20 28 29 76 55 93 52 4 -1 7 2 7 7 0 5 8 12 18 14 12
3 12 5 2 5 -8 1 -31 -5 -50 -12z"/>
<path d="M1185 2880 c3 -6 -1 -10 -9 -10 -9 0 -16 -5 -16 -11 0 -6 -7 -9 -15
-5 -8 3 -14 0 -12 -6 1 -7 -14 -20 -33 -29 -30 -15 -31 -17 -10 -15 14 1 35 8
47 14 12 7 28 12 37 12 8 0 17 6 19 13 4 9 7 9 14 0 6 -8 34 -12 78 -11 88 1
156 -12 220 -42 28 -13 54 -23 58 -22 4 1 29 -14 54 -33 25 -19 50 -35 54 -35
5 0 18 -8 29 -17 14 -13 16 -19 7 -25 -8 -5 -7 -8 6 -8 9 0 17 5 17 11 0 13
42 1 52 -15 7 -11 11 -12 43 -15 8 0 15 -7 15 -15 0 -7 15 -21 34 -30 19 -9
54 -34 77 -56 24 -22 47 -40 53 -40 5 0 6 -3 3 -7 -4 -3 1 -11 10 -18 9 -7 14
-18 11 -26 -7 -19 -5 -35 5 -31 9 3 43 -35 64 -72 10 -17 12 -18 13 -4 0 9 -6
23 -13 30 -7 7 -18 25 -24 41 -7 15 -17 27 -22 27 -5 0 -8 6 -8 13 1 6 -12 38
-28 70 -23 44 -33 56 -47 51 -11 -3 -18 0 -18 7 0 7 -3 9 -7 6 -8 -9 -34 13
-28 24 3 4 -9 16 -26 25 -18 9 -43 29 -56 45 -13 15 -30 26 -38 23 -7 -3 -25
2 -39 12 -24 15 -26 15 -20 0 7 -17 -3 -21 -24 -7 -17 10 -17 22 -1 32 9 5 4
10 -17 15 -16 4 -38 13 -49 20 -11 7 -24 13 -28 13 -16 -1 -137 54 -137 63 0
4 -11 8 -25 8 -14 0 -51 9 -82 20 -31 11 -59 16 -62 12 -9 -13 -71 -35 -78
-29 -3 4 2 9 11 13 23 9 20 23 -4 17 -11 -3 -20 -9 -20 -14 0 -5 -5 -9 -11 -9
-5 0 -8 4 -5 9 3 5 -1 12 -10 15 -8 3 -12 2 -9 -4z"/>
<path d="M1071 2763 c-8 -16 -14 -16 -42 -6 -42 16 -61 4 -21 -13 38 -15 68
-9 75 17 6 24 1 24 -12 2z"/>
<path d="M934 2469 c-12 -6 -26 -22 -32 -34 -7 -15 -21 -25 -38 -27 -15 -2
-32 -11 -38 -22 -6 -10 -20 -29 -31 -41 -49 -55 -66 -79 -72 -103 -3 -15 -19
-43 -35 -62 -15 -19 -28 -42 -28 -50 0 -9 -9 -33 -20 -54 -10 -22 -17 -43 -14
-47 3 -5 -2 -19 -10 -31 -21 -32 -61 -246 -58 -313 0 -5 1 -49 2 -97 2 -52 7
-92 14 -97 9 -8 11 18 8 107 -2 64 1 151 7 192 20 134 36 211 44 206 4 -3 5
-3 2 1 -3 3 0 12 5 18 6 7 15 38 21 70 6 35 19 66 32 79 12 11 34 47 49 79 15
31 32 57 38 57 5 0 10 7 10 15 0 8 4 15 10 15 5 0 17 15 26 33 21 41 20 40 34
32 9 -6 9 -10 -1 -16 -7 -4 -11 -11 -7 -14 3 -3 19 12 34 34 16 22 39 42 52
46 12 3 22 9 22 14 0 4 12 6 26 3 16 -3 23 -9 20 -18 -4 -10 2 -14 19 -14 13
0 26 -4 29 -9 3 -5 21 -14 38 -20 33 -10 33 -10 9 7 -13 9 -35 28 -49 41 -28
26 -86 36 -118 20z"/>
<path d="M2095 2421 c11 -13 27 -20 38 -17 11 3 16 0 14 -7 -3 -7 -10 -11 -16
-9 -7 1 -10 -2 -6 -8 3 -6 10 -8 15 -5 4 2 20 -5 34 -16 15 -12 29 -19 32 -16
10 9 -62 80 -82 82 -11 0 -26 5 -34 10 -9 5 -6 -1 5 -14z"/>
<path d="M1130 2419 c0 -5 6 -9 14 -9 10 0 13 -8 11 -22 -4 -21 9 -38 29 -38
6 0 1 7 -10 16 -18 14 -18 15 6 8 49 -13 102 -46 138 -85 20 -21 40 -39 45
-39 11 0 73 -52 155 -129 31 -30 75 -66 97 -80 22 -14 53 -39 70 -56 16 -16
34 -29 38 -27 5 1 6 -2 3 -7 -3 -5 5 -16 19 -25 14 -9 25 -23 25 -31 0 -9 11
-20 25 -25 14 -5 25 -12 25 -15 0 -4 -4 -4 -8 -1 -14 8 23 -90 59 -159 18 -35
37 -62 41 -59 6 4 18 -24 23 -56 1 -3 4 -14 8 -25 7 -22 47 -52 47 -35 0 5 -4
10 -9 10 -5 0 -15 17 -22 38 -6 20 -16 42 -21 49 -5 7 -6 18 -2 25 4 7 4 10
-1 6 -5 -5 -16 10 -26 32 -10 23 -26 48 -35 57 -9 9 -14 26 -11 39 2 13 0 21
-4 18 -4 -2 -11 12 -15 33 -4 20 -17 46 -29 57 -12 12 -24 26 -26 32 -7 19
-76 91 -105 111 -33 21 -98 79 -171 151 -29 28 -57 52 -61 52 -4 0 2 -7 12
-15 11 -8 15 -15 8 -15 -7 0 -17 9 -24 20 -7 11 -20 20 -29 20 -9 0 -22 6 -28
14 -17 20 3 30 31 16 23 -11 23 -11 -1 9 -13 12 -36 21 -52 21 -20 0 -34 8
-45 25 -18 28 -64 59 -48 33 6 -10 3 -9 -10 2 -10 8 -23 15 -30 16 -26 5 -66
24 -66 33 0 5 -9 11 -20 14 -11 3 -20 1 -20 -4z"/>
<path d="M2140 2345 c0 -16 18 -40 31 -40 7 0 13 -7 14 -16 2 -12 -3 -15 -16
-12 -10 3 -19 10 -19 17 0 6 -8 20 -16 31 -15 19 -15 19 -8 -10 12 -50 43 -87
66 -79 17 5 20 3 15 -10 -4 -9 -2 -16 2 -16 5 0 17 -22 27 -50 10 -27 21 -50
25 -50 4 0 5 -8 3 -18 -3 -9 0 -28 6 -42 10 -24 10 -24 7 7 -2 18 0 30 5 27
10 -7 10 -1 -2 30 -5 14 -6 26 -1 26 11 0 22 -56 14 -76 -3 -9 0 -19 6 -24 7
-4 17 -39 23 -79 7 -39 15 -71 19 -71 10 0 6 81 -5 98 -4 7 -9 32 -11 56 -1
23 -12 64 -24 90 -11 27 -18 52 -15 57 3 5 1 8 -4 7 -18 -5 -61 69 -55 93 4
15 3 20 -6 15 -6 -4 -8 -12 -5 -18 5 -7 2 -8 -5 -4 -7 5 -10 15 -6 24 3 9 3
13 -1 9 -4 -4 -13 -2 -21 4 -7 6 -13 8 -13 3 0 -4 -7 1 -15 12 -8 10 -14 15
-15 9z"/>
<path d="M2074 2297 c-16 -19 2 -65 19 -48 9 9 9 14 -1 20 -7 4 -10 15 -6 24
7 20 3 21 -12 4z"/>
<path d="M299 2246 c-1 -3 -2 -9 -3 -13 -8 -40 -31 -101 -37 -97 -4 2 -10 -3
-13 -12 -3 -9 -15 -14 -28 -12 -13 1 -24 -1 -25 -5 -6 -15 -2 -27 8 -27 5 0 7
5 4 10 -3 6 -1 10 5 10 7 0 17 -13 23 -30 13 -34 42 -40 63 -13 7 10 16 14 20
10 10 -10 10 -75 1 -132 -6 -37 -6 -38 5 -12 7 15 15 27 18 27 4 0 4 15 2 32
-5 30 -3 32 11 19 15 -12 17 -11 15 12 -2 19 -5 23 -14 16 -9 -7 -11 -5 -8 8
5 19 -31 71 -38 54 -4 -13 -32 -18 -33 -6 0 6 -3 15 -7 20 -8 13 11 39 35 48
14 5 16 11 9 24 -6 10 -6 26 -1 40 5 13 4 25 -1 28 -6 4 -11 4 -11 1z"/>
<path d="M2097 2243 c-11 -10 -8 -43 3 -43 6 0 10 7 10 16 0 8 5 12 10 9 6 -3
10 -16 10 -29 0 -12 8 -31 18 -42 10 -11 16 -26 14 -34 -3 -10 -1 -12 6 -5 17
16 18 39 3 40 -8 0 -18 14 -23 31 -8 33 -40 68 -51 57z"/>
<path d="M333 2205 c1 -22 -3 -49 -7 -60 -5 -11 1 -5 13 13 21 33 29 78 12 68
-5 -4 -11 0 -14 6 -2 7 -4 -5 -4 -27z"/>
<path d="M2345 2105 c17 -75 32 -155 29 -160 -2 -3 1 -1 8 5 13 11 -2 93 -27
145 -8 17 -13 21 -10 10z"/>
<path d="M363 1953 c-17 -36 -16 -110 2 -181 8 -31 17 -69 19 -83 3 -14 17
-42 31 -63 14 -20 25 -47 25 -59 0 -28 42 -137 54 -137 14 0 -4 141 -24 180
-10 20 -21 53 -25 73 -7 34 -25 62 -25 38 0 -6 -5 -11 -10 -11 -11 0 -4 66 10
85 8 12 14 95 6 95 -3 0 -13 -26 -22 -57 -15 -50 -18 -55 -26 -37 -7 15 -5 40
6 81 21 83 6 136 -21 76z"/>
<path d="M2387 1923 c-10 -10 15 -51 28 -47 7 3 16 1 20 -5 3 -7 -3 -11 -15
-11 -17 0 -21 -5 -18 -27 3 -28 28 -45 28 -19 0 9 5 16 11 16 6 0 9 -7 5 -15
-10 -26 9 -16 26 13 17 28 17 29 -10 53 -34 30 -68 49 -75 42z"/>
<path d="M720 1884 c0 -12 -6 -15 -23 -10 -19 4 -26 0 -35 -19 -9 -20 -9 -25
3 -25 7 0 17 5 21 11 3 6 17 8 30 5 16 -4 23 -2 22 6 -5 21 31 20 75 -1 24
-12 48 -21 53 -21 5 0 26 -9 47 -20 20 -11 37 -18 37 -16 0 3 12 -1 27 -9 37
-19 40 -12 12 24 -28 35 -84 65 -101 55 -7 -5 -9 -2 -5 9 5 13 2 15 -18 7 -14
-5 -25 -5 -27 0 -2 5 -29 11 -60 14 -49 5 -58 3 -58 -10z"/>
<path d="M1448 1873 c-17 -4 -32 -30 -20 -36 4 -2 43 -1 87 3 109 9 144 6 200
-19 27 -12 50 -19 53 -16 3 3 0 5 -6 5 -7 0 -12 7 -12 15 0 8 -3 14 -7 13 -5
-1 -21 6 -36 16 -23 15 -49 20 -135 21 -59 1 -114 0 -124 -2z"/>
<path d="M1377 1822 c-20 -10 -26 -17 -19 -24 7 -7 19 -4 37 10 32 25 20 34
-18 14z"/>
<path d="M2374 1761 c4 -6 2 -11 -4 -11 -7 0 -9 -7 -6 -16 4 -9 2 -22 -4 -29
-7 -8 -8 -25 -3 -42 7 -27 8 -26 19 22 8 32 13 41 13 25 2 -24 2 -24 16 -6 20
27 19 31 -11 51 -15 9 -23 12 -20 6z"/>
<path d="M825 1740 c-11 -5 -30 -6 -42 -3 -13 3 -29 -3 -42 -16 -12 -12 -21
-18 -21 -14 0 17 -23 -19 -26 -40 -2 -17 5 -26 24 -34 100 -41 132 -52 132
-44 0 5 16 19 35 31 20 12 34 27 32 33 -5 15 -45 16 -51 0 -3 -7 -10 -13 -16
-13 -7 0 -7 7 1 23 11 20 11 21 -4 8 -18 -15 -23 -51 -7 -51 6 0 10 -4 10 -9
0 -10 -75 26 -98 46 -22 21 27 33 109 28 71 -4 100 -18 79 -39 -14 -14 -12
-23 5 -23 8 0 12 4 10 8 -3 4 -2 14 1 23 5 14 8 14 22 -1 12 -12 13 -18 4 -21
-15 -5 -16 -32 -2 -32 20 0 22 30 6 65 -9 19 -22 36 -29 36 -7 1 -16 2 -22 4
-5 1 -20 3 -33 3 -13 1 -21 6 -18 11 4 5 -10 5 -32 0 -48 -11 -54 -11 -47 1 4
6 10 8 14 6 8 -5 38 11 31 17 -3 3 -14 1 -25 -3z"/>
<path d="M1340 1722 c0 -7 -5 -11 -11 -9 -6 1 -14 -4 -17 -12 -3 -9 0 -11 9
-6 8 5 6 -1 -5 -13 -20 -23 -35 -112 -19 -112 6 0 13 19 16 43 3 23 13 57 23
75 9 18 13 36 10 39 -3 4 -6 1 -6 -5z"/>
<path d="M1440 1709 c-21 -10 -42 -14 -46 -11 -4 4 -4 2 -1 -5 4 -6 3 -13 -3
-15 -6 -2 -12 -12 -14 -23 -2 -11 -6 -26 -8 -34 -3 -15 48 -34 71 -26 11 4 9
9 -7 21 -29 20 -28 38 3 58 32 21 38 20 25 -3 -22 -42 20 -72 73 -52 21 8 27
17 27 41 0 27 2 29 23 21 12 -5 31 -12 42 -16 16 -6 7 -13 -50 -40 -56 -28
-65 -35 -50 -41 11 -4 24 -9 29 -12 5 -3 6 1 1 8 -6 9 -1 10 16 5 16 -4 19 -3
11 3 -10 7 -10 11 3 22 13 11 19 7 16 -12 -1 -7 87 40 93 51 3 4 3 17 -1 29
-4 16 -15 22 -52 27 -25 3 -55 11 -66 17 -14 8 -20 8 -23 -1 -4 -12 -32 -15
-32 -3 0 13 -40 9 -80 -9z m101 -38 c-7 -5 -10 -14 -6 -21 6 -9 3 -9 -15 0
-12 7 -20 8 -17 3 3 -5 2 -15 -3 -23 -7 -12 -11 -9 -18 10 -13 34 -7 40 36 40
25 0 33 -3 23 -9z"/>
<path d="M2325 1642 c-13 -22 -21 -28 -27 -19 -4 6 -8 8 -8 2 0 -5 4 -16 9
-24 10 -15 4 -41 -9 -41 -5 0 -11 8 -13 18 -4 13 -5 12 -6 -5 0 -12 5 -23 12
-26 8 -3 5 -12 -11 -29 -18 -20 -21 -30 -13 -50 10 -26 5 -64 -10 -84 -5 -6
-5 -15 -1 -19 4 -5 -1 -5 -10 -2 -10 4 -18 2 -18 -3 0 -17 28 -11 39 8 9 15
10 15 11 -5 0 -14 -6 -23 -15 -23 -8 0 -15 -5 -15 -10 0 -16 -81 -130 -92
-130 -6 0 -17 -8 -25 -17 -11 -16 -12 -14 -1 12 7 17 16 32 20 35 15 11 56 79
45 74 -7 -2 -20 -17 -29 -32 -10 -15 -35 -54 -57 -87 -22 -33 -40 -65 -40 -72
-1 -6 -11 -19 -23 -28 -13 -8 -23 -20 -23 -25 0 -6 -4 -11 -10 -11 -12 -2 -29
-26 -38 -54 -5 -15 -1 -13 16 8 23 28 37 34 37 17 0 -5 11 -33 24 -62 13 -29
33 -75 45 -101 12 -26 26 -45 31 -42 6 4 10 -3 10 -14 0 -12 6 -21 13 -21 13
0 18 -30 20 -120 1 -54 -14 -150 -24 -150 -5 0 -9 -11 -9 -25 0 -15 6 -25 14
-25 8 0 15 -14 18 -34 3 -24 0 -32 -9 -29 -7 3 -13 2 -13 -2 0 -10 30 -38 31
-28 2 16 9 309 8 353 0 44 -48 166 -49 125 0 -11 -3 -15 -9 -10 -14 15 -42 87
-31 80 6 -3 10 -2 10 3 0 6 -7 12 -15 16 -14 5 -32 38 -33 60 0 5 -6 12 -13
16 -8 6 -3 21 20 55 17 25 26 43 19 39 -7 -3 9 14 37 39 27 25 52 44 55 42 3
-2 19 15 35 37 17 22 40 44 52 49 15 5 23 17 23 31 -1 54 6 97 18 110 6 8 14
49 16 91 2 42 12 92 21 111 22 47 14 69 -10 28z"/>
<path d="M525 1518 c3 -57 1 -88 -6 -88 -6 0 -9 -12 -7 -27 2 -20 8 -27 21
-25 10 2 17 -3 17 -13 0 -9 11 -31 24 -48 14 -18 34 -57 45 -87 12 -30 25 -64
30 -75 5 -11 16 -55 26 -99 21 -94 82 -221 100 -206 6 5 16 6 20 2 5 -4 -3 8
-18 26 -15 19 -27 44 -27 57 0 12 -7 25 -15 29 -8 3 -15 14 -15 25 0 26 -10
52 -19 47 -3 -2 -7 15 -8 37 -3 67 -11 129 -17 135 -3 3 -6 -8 -6 -24 -1 -41
-13 -16 -40 81 -12 44 -29 91 -37 105 l-14 25 4 -28 c3 -16 1 -25 -4 -20 -12
12 -29 104 -18 97 5 -3 9 2 9 10 0 9 -6 16 -12 16 -9 0 -8 3 2 10 12 8 12 10
-2 15 -9 4 -14 13 -11 21 3 8 0 14 -7 14 -7 0 -10 7 -6 15 3 8 1 25 -4 37 -6
16 -8 -5 -5 -64z"/>
<path d="M1881 1517 c-7 -45 -15 -93 -18 -107 -4 -14 -5 -31 -4 -37 1 -7 -2
-13 -7 -13 -11 0 -11 -5 -16 -105 -2 -44 -7 -93 -11 -110 -22 -101 -27 -122
-41 -150 -8 -18 -28 -42 -44 -54 -28 -20 -30 -27 -30 -82 0 -38 4 -58 10 -54
6 3 10 0 11 -7 0 -7 3 -33 6 -58 2 -25 5 -116 6 -202 1 -87 5 -158 10 -158 4
0 8 5 8 10 1 6 2 15 3 20 0 6 6 10 11 9 14 0 24 44 13 58 -5 6 -11 57 -13 112
-4 80 -2 101 9 101 11 0 11 10 1 58 -6 33 -15 64 -19 70 -4 7 0 26 8 44 8 18
18 47 23 63 13 40 49 47 62 12 5 -14 15 -27 22 -29 10 -3 10 -11 1 -38 -16
-44 -8 -50 13 -11 16 31 15 32 -15 69 -16 20 -30 43 -30 51 0 10 -3 11 -14 2
-11 -9 -15 -6 -18 13 -3 14 -2 23 2 21 10 -6 41 92 34 108 -2 7 4 24 16 37 24
27 26 38 5 20 -13 -11 -14 -10 -8 6 16 38 40 64 55 59 11 -4 18 2 23 22 5 15
8 31 7 35 -1 4 5 39 13 78 8 39 15 79 15 88 0 15 -1 15 -16 0 -17 -16 -18 -23
-30 -131 -6 -51 -12 -62 -41 -85 -18 -15 -33 -33 -33 -39 0 -7 -4 -13 -9 -13
-11 0 4 90 23 144 9 22 17 57 18 76 2 19 8 38 13 42 6 4 1 8 -10 8 -12 0 -16
3 -9 8 19 12 34 100 20 112 -10 7 -16 -11 -25 -73z"/>
<path d="M1071 1513 c0 -32 -2 -79 -6 -105 -7 -57 -1 -61 19 -13 14 33 18 77
6 70 -10 -6 -7 90 4 97 7 5 4 8 -7 8 -14 0 -17 -9 -16 -57z"/>
<path d="M1035 1260 c-3 -5 1 -10 9 -10 9 0 16 -5 16 -11 0 -6 6 -9 14 -6 7 3
19 0 25 -6 15 -15 13 4 -3 26 -14 19 -51 23 -61 7z"/>
<path d="M1207 1236 c-8 -19 1 -26 32 -26 30 1 68 26 57 37 -4 5 -14 -1 -22
-11 -12 -17 -14 -18 -14 -3 0 21 -45 24 -53 3z"/>
<path d="M0 587 c0 -420 3 -587 11 -587 8 0 9 162 4 582 -3 321 -8 585 -11
587 -2 2 -4 -260 -4 -582z"/>
<path d="M1043 1062 c-25 -9 -43 -23 -43 -32 0 -9 3 -11 8 -5 20 28 98 45 118
25 5 -5 15 -6 24 0 11 7 9 11 -13 19 -35 14 -42 13 -94 -7z"/>
<path d="M1196 1068 c5 -8 2 -9 -10 -5 -11 4 -15 3 -10 -4 3 -6 17 -8 31 -4
14 3 23 2 20 -2 -3 -4 11 -9 32 -10 l36 -2 -35 19 c-40 22 -75 26 -64 8z"/>
<path d="M1231 1026 c3 -3 22 -17 44 -32 54 -36 100 -47 117 -26 8 9 8 13 2 9
-7 -4 -17 -1 -23 7 -10 12 -63 29 -98 31 -6 0 -15 4 -19 8 -4 4 -12 7 -17 7
-6 0 -8 -2 -6 -4z"/>
<path d="M930 982 c0 -8 93 -53 98 -47 2 2 -8 14 -23 27 -25 22 -75 35 -75 20z"/>
<path d="M1910 965 c-14 -8 -23 -15 -20 -15 54 -12 67 -7 52 17 -5 8 -13 8
-32 -2z"/>
<path d="M1052 895 c9 -10 27 -19 40 -20 13 -1 42 -5 64 -9 31 -5 43 -4 46 6
4 10 -6 14 -36 14 -47 2 -102 11 -119 20 -7 4 -4 -1 5 -11z"/>
<path d="M1645 864 c-22 -19 -33 -34 -25 -34 8 0 -3 -10 -25 -21 -22 -12 -56
-35 -74 -52 -54 -47 -167 -96 -239 -103 -34 -4 -65 -11 -68 -15 -3 -5 -10 -9
-15 -9 -6 0 -7 6 -3 13 6 9 4 9 -8 -1 -9 -7 -22 -12 -30 -11 -32 4 -78 -2 -78
-10 0 -12 158 -6 215 8 25 7 41 7 43 1 6 -17 25 -11 66 20 22 17 47 30 55 30
9 0 22 9 28 19 7 10 42 38 78 62 41 26 68 51 71 66 4 13 18 32 32 43 14 11 23
22 21 24 -2 2 -22 -11 -44 -30z"/>
<path d="M759 823 c-1 -5 -2 -12 -4 -18 -1 -5 -3 -18 -3 -28 -1 -10 -10 -20
-19 -24 -39 -13 -86 -58 -104 -98 -20 -45 -29 -151 -14 -174 5 -10 4 -16 -4
-19 -24 -8 -71 -55 -69 -68 6 -28 -160 -218 -278 -318 -53 -45 -78 -72 -68
-74 22 -5 64 7 61 17 -2 7 26 36 83 86 14 12 20 14 15 5 -8 -13 -7 -13 8 -1 9
7 17 19 17 26 0 11 43 59 85 93 8 7 13 17 10 23 -4 5 -1 9 6 9 14 0 46 36 54
61 4 11 10 19 14 19 13 0 42 60 35 72 -4 7 -3 8 4 4 6 -4 16 4 23 16 7 13 17
26 23 30 8 5 7 13 -2 29 -12 19 -12 20 9 14 21 -7 22 -6 7 9 -9 9 -15 24 -14
34 2 9 7 35 10 58 9 49 34 88 61 92 27 5 32 11 16 21 -10 6 -4 11 18 16 18 4
35 13 38 21 8 21 45 18 41 -3 -2 -10 4 -19 12 -19 8 -1 23 -2 32 -3 16 -1 56
-85 50 -105 -8 -25 75 -226 87 -208 7 12 46 -30 70 -76 7 -13 15 -21 18 -18 3
3 0 12 -7 21 -17 21 -7 29 19 15 15 -8 20 -17 15 -34 -4 -17 3 -31 27 -57 18
-19 32 -37 31 -41 -1 -4 5 -5 13 -2 8 4 15 1 15 -5 0 -6 6 -8 14 -5 21 8 71
-63 92 -131 19 -60 34 -85 52 -85 7 0 6 11 -1 29 -6 17 -14 28 -18 25 -4 -2
-7 6 -7 19 0 53 -24 101 -81 165 -13 15 -18 19 -11 9 7 -9 10 -20 7 -23 -7 -7
-78 56 -72 65 6 11 -138 144 -204 187 -7 5 -31 137 -26 142 3 3 -3 14 -12 25
-10 11 -12 17 -5 13 14 -9 15 4 3 37 -13 33 -57 73 -108 98 -24 11 -43 25 -43
30 0 11 -19 12 -21 2z"/>
<path d="M2201 580 c1 -39 6 -73 10 -76 5 -2 8 29 7 71 0 41 -5 75 -10 75 -5
0 -8 -32 -7 -70z"/>
<path d="M1853 553 c-9 -32 -16 -66 -14 -77 1 -10 -3 -22 -10 -27 -8 -4 -10
-11 -6 -15 18 -18 43 44 53 134 7 59 -2 52 -23 -15z"/>
<path d="M2994 485 c0 -49 1 -71 3 -48 2 23 2 64 0 90 -2 26 -3 8 -3 -42z"/>
<path d="M943 411 c2 -29 33 -64 50 -58 7 2 18 -3 25 -12 11 -14 12 -14 10 4
-2 13 -12 21 -31 23 -15 2 -27 9 -27 16 0 7 -7 21 -15 32 -14 18 -15 18 -12
-5z"/>
<path d="M1695 383 c-10 -21 -21 -45 -25 -53 -3 -8 -16 -33 -27 -55 -33 -66
-65 -148 -68 -176 -2 -15 -6 -36 -10 -48 -3 -11 -4 -21 0 -21 7 0 28 49 30 71
1 10 12 30 23 46 11 16 26 50 32 75 7 25 24 59 40 76 23 26 25 32 11 35 -14 4
-14 5 2 6 9 0 17 9 18 19 0 9 2 27 5 40 6 34 -11 26 -31 -15z"/>
<path d="M870 383 c0 -10 8 -27 17 -38 15 -20 15 -19 9 5 -3 14 -6 31 -6 38 0
6 -4 12 -10 12 -5 0 -10 -8 -10 -17z"/>
<path d="M2225 371 c-3 -6 10 -13 30 -17 19 -3 33 -10 30 -14 -3 -5 -1 -11 5
-15 5 -3 10 -1 10 5 0 7 7 5 16 -4 8 -9 23 -16 32 -17 93 -5 144 -17 135 -32
-4 -6 -1 -7 7 -2 8 5 17 2 24 -7 19 -26 231 -97 224 -76 -4 11 -143 66 -190
75 -15 3 -26 9 -23 13 3 5 -27 19 -67 31 -40 12 -102 33 -138 45 -72 26 -86
29 -95 15z"/>
<path d="M2745 152 c4 -9 10 -25 12 -35 4 -13 9 -15 19 -7 9 8 19 8 36 -1 15
-8 19 -14 10 -17 -8 -2 10 -14 40 -27 68 -29 121 -46 125 -41 3 2 -33 30 -79
61 -84 59 -129 80 -113 55 5 -8 3 -11 -6 -8 -8 3 -13 10 -12 16 1 5 -7 12 -18
15 -16 4 -19 2 -14 -11z"/>
<path d="M2205 114 l-1 -47 14 33 c13 32 10 60 -5 60 -4 0 -8 -21 -8 -46z"/>
</g>
</svg>
